<svg id="Layer_1" data-name="Layer 1" xmlns="http://www.w3.org/2000/svg" width="34" height="34" viewBox="0 0 34 34"><defs><style>.cls-1{fill:#999;}.cls-2{fill:none;}</style></defs><title>browser</title><path class="cls-1" d="M694.93,238.6H671.07a2.39,2.39,0,0,0-2.39,2.39v23.86a2.39,2.39,0,0,0,2.39,2.39h23.86a2.39,2.39,0,0,0,2.39-2.39V241A2.39,2.39,0,0,0,694.93,238.6Zm1.43,26.25a1.43,1.43,0,0,1-1.43,1.43H671.07a1.43,1.43,0,0,1-1.43-1.43V243.38h26.72v21.47Zm0-22.43H669.64V241a1.43,1.43,0,0,1,1.43-1.43h23.86a1.43,1.43,0,0,1,1.43,1.43v1.43Z" transform="translate(-666 -236)"/><path class="cls-1" d="M672,240.51h-.47a.48.48,0,0,0,0,1H672a.48.48,0,1,0,0-1Z" transform="translate(-666 -236)"/><path class="cls-1" d="M674.11,240.55a.45.45,0,0,0-.36,0,.54.54,0,0,0-.16.1.5.5,0,0,0,0,.68l.16.1a.45.45,0,0,0,.36,0l.16-.1a.48.48,0,0,0,0-.68A.54.54,0,0,0,674.11,240.55Z" transform="translate(-666 -236)"/><path class="cls-1" d="M676,240.55a.46.46,0,0,0-.52.1.86.86,0,0,0-.1.16.45.45,0,0,0,0,.36.86.86,0,0,0,.1.16.5.5,0,0,0,.68,0,.54.54,0,0,0,.1-.16.39.39,0,0,0,0-.18A.48.48,0,0,0,676,240.55Z" transform="translate(-666 -236)"/><path class="cls-1" d="M694.45,240.51H678.23a.48.48,0,1,0,0,1h16.22a.48.48,0,0,0,0-1Z" transform="translate(-666 -236)"/><path class="cls-1" d="M676,261.33l.07.05a9.51,9.51,0,0,0,13.85,0l.06-.05,0-.07a9.5,9.5,0,0,0,0-12.86h0a.16.16,0,0,0,0-.07.18.18,0,0,0-.07-.05,9.5,9.5,0,0,0-13.84,0l-.07.05a.16.16,0,0,0,0,.07,9.48,9.48,0,0,0,0,12.86A.25.25,0,0,0,676,261.33ZM685.6,263a8.6,8.6,0,0,0,1.63-3h0a9.06,9.06,0,0,1,1.68,1A8.47,8.47,0,0,1,685.6,263Zm4-2.66a9.36,9.36,0,0,0-2.07-1.27,17.18,17.18,0,0,0,.5-3.77h3.57A8.52,8.52,0,0,1,689.57,260.35Zm2-6H688a17.18,17.18,0,0,0-.5-3.77,9.36,9.36,0,0,0,2.07-1.27A8.52,8.52,0,0,1,691.57,254.35Zm-2.66-5.73a9,9,0,0,1-1.68,1,8.73,8.73,0,0,0-1.63-3A8.61,8.61,0,0,1,688.91,248.62Zm-5.43-2.31c1.17.3,2.2,1.71,2.85,3.7a9.91,9.91,0,0,1-2.85.54Zm0,5.2a11.08,11.08,0,0,0,3.12-.57,15.7,15.7,0,0,1,.44,3.41h-3.56Zm0,3.8H687a15.7,15.7,0,0,1-.44,3.41,11.08,11.08,0,0,0-3.12-.57Zm0,3.8a9.91,9.91,0,0,1,2.85.54c-.65,2-1.68,3.4-2.85,3.7ZM677.09,261a8.51,8.51,0,0,1,1.68-1h0a8.69,8.69,0,0,0,1.63,3A8.59,8.59,0,0,1,677.09,261Zm5.43,2.31c-1.17-.3-2.2-1.71-2.85-3.7a9.91,9.91,0,0,1,2.85-.54v4.24Zm0-5.2a11.08,11.08,0,0,0-3.12.57,15.7,15.7,0,0,1-.44-3.41h3.56Zm0-3.8H679a15.7,15.7,0,0,1,.44-3.41,11.08,11.08,0,0,0,3.12.57Zm0-8v4.24a9.91,9.91,0,0,1-2.85-.54C680.32,248,681.35,246.61,682.52,246.31Zm-2.12.33a8.73,8.73,0,0,0-1.63,3h0a8.55,8.55,0,0,1-1.68-1A8.72,8.72,0,0,1,680.4,246.64Zm-4,2.67a9.36,9.36,0,0,0,2.07,1.27,17.18,17.18,0,0,0-.5,3.77h-3.57A8.52,8.52,0,0,1,676.43,249.31Zm1.57,6a17.18,17.18,0,0,0,.5,3.77,9.36,9.36,0,0,0-2.07,1.27,8.52,8.52,0,0,1-2-5Z" transform="translate(-666 -236)"/><rect class="cls-2" width="34" height="34"/></svg>