<svg id="Layer_1" data-name="Layer 1" xmlns="http://www.w3.org/2000/svg" width="34" height="34" viewBox="0 0 34 34"><defs><style>.cls-1{fill:none;}.cls-2{fill:#999;}</style></defs><title>cdn</title><rect class="cls-1" width="34" height="34"/><path class="cls-2" d="M694.49,245a3.58,3.58,0,0,0-1.08.16,7,7,0,0,0-13.5-3.28,4.33,4.33,0,0,0-6.6,3.6,3.47,3.47,0,0,0-1.8-.48,3.51,3.51,0,1,0,0,7,.5.5,0,0,0,.5-.5.5.5,0,0,0-.5-.5,2.51,2.51,0,1,1,.08-5,2.5,2.5,0,0,1,2.08,1.16.5.5,0,0,0,.88-.46,3.24,3.24,0,0,1,3.09-4.46,3.36,3.36,0,0,1,2.2.83.51.51,0,0,0,.71,0,.44.44,0,0,0,.1-.19,6,6,0,0,1,11.8,1.54,5.43,5.43,0,0,1-.22,1.55.5.5,0,0,0,.77.55,2.58,2.58,0,0,1,1.49-.47,2.51,2.51,0,0,1,0,5,.5.5,0,0,0-.5.5.5.5,0,0,0,.5.5,3.51,3.51,0,0,0,0-7Z" transform="translate(-666 -236)"/><path class="cls-2" d="M691.53,256.56H674.47a1.52,1.52,0,0,0-1.51,1.51v2a1.51,1.51,0,0,0,1.51,1.5h17.06a1.5,1.5,0,0,0,1.5-1.5v-2A1.51,1.51,0,0,0,691.53,256.56Zm.5,3.52a.51.51,0,0,1-.5.5H674.47a.5.5,0,0,1-.5-.5v-2a.5.5,0,0,1,.5-.5h17.06a.5.5,0,0,1,.5.5Z" transform="translate(-666 -236)"/><path class="cls-2" d="M690.14,258.1a1,1,0,0,0-1,1,1,1,0,0,0,1,1,1,1,0,0,0,0-1.95Zm0,1s0,0,0,0l0,0Z" transform="translate(-666 -236)"/><path class="cls-2" d="M684.91,258.57h-9.54a.51.51,0,0,0,0,1h9.54a.51.51,0,0,0,0-1Z" transform="translate(-666 -236)"/><path class="cls-2" d="M688,258.57h-1.33a.51.51,0,0,0,0,1H688a.51.51,0,1,0,0-1Z" transform="translate(-666 -236)"/><path class="cls-2" d="M691.53,262.59H674.47a1.51,1.51,0,0,0-1.51,1.5v2a1.51,1.51,0,0,0,1.51,1.5h17.06a1.5,1.5,0,0,0,1.5-1.5v-2A1.5,1.5,0,0,0,691.53,262.59Zm.5,3.51a.51.51,0,0,1-.5.5H674.47a.5.5,0,0,1-.5-.5v-2a.5.5,0,0,1,.5-.5h17.06a.5.5,0,0,1,.5.5Z" transform="translate(-666 -236)"/><path class="cls-2" d="M690.14,264.12a1,1,0,0,0-1,1,1,1,0,0,0,1,1,1,1,0,0,0,0-1.95Zm0,1s0,0,0,0l0,0Z" transform="translate(-666 -236)"/><path class="cls-2" d="M684.91,264.59h-9.54a.51.51,0,0,0,0,1h9.54a.51.51,0,0,0,0-1Z" transform="translate(-666 -236)"/><path class="cls-2" d="M688,264.59h-1.33a.51.51,0,0,0,0,1H688a.51.51,0,1,0,0-1Z" transform="translate(-666 -236)"/><path class="cls-2" d="M691.53,250.54H674.47a1.52,1.52,0,0,0-1.51,1.51v2a1.51,1.51,0,0,0,1.51,1.5h17.06a1.5,1.5,0,0,0,1.5-1.5v-2A1.51,1.51,0,0,0,691.53,250.54Zm.5,3.52a.51.51,0,0,1-.5.5H674.47a.5.5,0,0,1-.5-.5v-2a.5.5,0,0,1,.5-.5h17.06a.5.5,0,0,1,.5.5Z" transform="translate(-666 -236)"/><path class="cls-2" d="M691,252.92a1,1,0,0,0-1.14-.79,1,1,0,0,0-.79,1.12,1,1,0,0,0,1,.81l.16,0a.94.94,0,0,0,.64-.4A1,1,0,0,0,691,252.92Zm-1,.17,0,0v.07S690,253.1,690,253.09Z" transform="translate(-666 -236)"/><path class="cls-2" d="M684.8,252.55h-9.53a.51.51,0,0,0-.5.5.5.5,0,0,0,.5.5h9.53a.5.5,0,0,0,.51-.5A.51.51,0,0,0,684.8,252.55Z" transform="translate(-666 -236)"/><path class="cls-2" d="M687.68,252.55h-1.33a.5.5,0,0,0-.5.5.5.5,0,0,0,.5.5h1.33a.5.5,0,0,0,.5-.5A.5.5,0,0,0,687.68,252.55Z" transform="translate(-666 -236)"/><path class="cls-2" d="M680.84,245.67l-1.5-1.5a.5.5,0,0,0-.71,0l-1.5,1.5a.5.5,0,0,0,0,.71.49.49,0,0,0,.69,0l.65-.65V249a.51.51,0,0,0,1,0v-3.31l.65.65a.48.48,0,0,0,.7,0A.5.5,0,0,0,680.84,245.67Z" transform="translate(-666 -236)"/><path class="cls-2" d="M688.86,247.18a.5.5,0,0,0-.7,0l-.65.65v-3.31a.5.5,0,0,0-.5-.5.51.51,0,0,0-.5.5v3.31l-.65-.65a.5.5,0,0,0-.71.71l1.51,1.5a.5.5,0,0,0,.71,0l1.5-1.5A.5.5,0,0,0,688.86,247.18Z" transform="translate(-666 -236)"/></svg>