<svg id="Layer_1" data-name="Layer 1" xmlns="http://www.w3.org/2000/svg" width="26" height="26" viewBox="0 0 26 26"><defs><style>.cls-1{fill:#fff;}.cls-2{fill:#ed1c24;}</style></defs><title>error</title><circle class="cls-1" cx="13" cy="13" r="13"/><path class="cls-2" d="M424,240a10.66,10.66,0,1,0,10.66,10.66A10.67,10.67,0,0,0,424,240Z" transform="translate(-411 -237.62)"/><path class="cls-1" d="M423.16,251.69l-2.15,2a1.16,1.16,0,0,1-.77.3h-1.41l3.2-2.86a1,1,0,0,0,0-1.4l-3-2.67h1.5a1,1,0,0,1,.63.24l2,1.82a1,1,0,0,0,1.26,0l2-1.82A1,1,0,0,1,427,247h1.5l-3,2.67a.92.92,0,0,0,0,1.39l3.21,2.87h-1.51a1,1,0,0,1-.63-.25l-2.21-2A1,1,0,0,0,423.16,251.69Z" transform="translate(-411 -237.62)"/></svg>