<svg id="Layer_1" data-name="Layer 1" xmlns="http://www.w3.org/2000/svg" width="34" height="34" viewBox="0 0 34 34"><defs><style>.cls-1{fill:none;}.cls-2{fill:#999;}</style></defs><title>host</title><rect class="cls-1" width="34" height="34"/><g id="Database-3"><path class="cls-2" d="M676.37,246.25a18.05,18.05,0,0,1-1.84-.42.48.48,0,1,0-.27.92h0c.58.17,1.23.31,1.93.44h.09a.49.49,0,0,0,.48-.48A.48.48,0,0,0,676.37,246.25Z" transform="translate(-666 -236)"/><path class="cls-2" d="M678.24,246.52a.47.47,0,0,0-.54.41.48.48,0,0,0,.41.54h0a43.87,43.87,0,0,0,9.72,0,.48.48,0,1,0-.08-.95h0a43.52,43.52,0,0,1-9.5,0Z" transform="translate(-666 -236)"/><path class="cls-2" d="M678.24,254.18a.47.47,0,0,0-.54.4.49.49,0,0,0,.41.55h0a45.55,45.55,0,0,0,9.72,0,.48.48,0,0,0,.44-.52.47.47,0,0,0-.52-.43h0a41.7,41.7,0,0,1-4.74.26A44.51,44.51,0,0,1,678.24,254.18Z" transform="translate(-666 -236)"/><path class="cls-2" d="M687.74,261.84a45.25,45.25,0,0,1-9.5,0,.47.47,0,0,0-.54.4.48.48,0,0,0,.41.54h0a45.55,45.55,0,0,0,9.72,0,.49.49,0,0,0,.44-.52.48.48,0,0,0-.52-.44Z" transform="translate(-666 -236)"/><path class="cls-2" d="M676.37,253.9c-.67-.12-1.29-.26-1.84-.41a.48.48,0,0,0-.6.32.49.49,0,0,0,.33.6h0c.58.16,1.23.31,1.93.44h.09a.48.48,0,0,0,.48-.48A.49.49,0,0,0,676.37,253.9Z" transform="translate(-666 -236)"/><path class="cls-2" d="M676.37,261.56a18.05,18.05,0,0,1-1.84-.42.49.49,0,0,0-.6.33.48.48,0,0,0,.33.59h0c.58.16,1.23.31,1.93.43h.09a.48.48,0,0,0,.08-.95Z" transform="translate(-666 -236)"/><path class="cls-2" d="M691.2,238.73a60.32,60.32,0,0,0-16.4,0c-3.34.56-3.76,1.27-3.76,1.83v23c0,2.2,6,3.35,12,3.35s12-1.15,12-3.35v-23C695,240,694.54,239.29,691.2,238.73ZM694,255.87c0,1-4.29,2.4-11,2.4s-11-1.42-11-2.4V250c2.17,1.3,7.52,1.53,11,1.53s8.84-.23,11-1.53Zm0-7.18c0,.8-3.42,1.92-11,1.92s-11-1.12-11-1.92v-6.31c2.17,1.3,7.52,1.53,11,1.53s8.84-.23,11-1.53Zm-22-8.09c.36-.51,4-1.48,11-1.48s10.65,1,11,1.48V241c0,.79-3.42,1.91-11,1.91s-11-1.12-11-1.91Zm11,25.32c-6.72,0-11-1.41-11-2.39v-6.26c1.93,1.29,6.49,2,11,2s9.08-.66,11-2v6.26C694,264.51,689.72,265.92,683,265.92Z" transform="translate(-666 -236)"/></g></svg>