<svg id="Layer_1" data-name="Layer 1" xmlns="http://www.w3.org/2000/svg" width="26" height="26" viewBox="0 0 26 26"><defs><style>.cls-1{fill:#fff;}.cls-2{fill:lime;}</style></defs><title>working</title><circle class="cls-1" cx="13" cy="13" r="13"/><path class="cls-2" d="M683.5,373.84a10.66,10.66,0,1,0,10.66,10.66A10.67,10.67,0,0,0,683.5,373.84Zm6.09,7.6-7.68,7.69a.91.91,0,0,1-.63.26.89.89,0,0,1-.63-.26L676.52,385a.45.45,0,0,1,0-.63l.63-.63a.45.45,0,0,1,.63,0l3.5,3.5,7.05-7.05a.45.45,0,0,1,.63,0l.63.63A.44.44,0,0,1,689.59,381.44Z" transform="translate(-670.5 -371.5)"/></svg>